<svg xmlns="http://www.w3.org/2000/svg" width="36" height="36" viewBox="0 0 36 36">
  <g id="ico-location" transform="translate(-864 -1410)">
    <g id="ic_location" transform="translate(869.4 1415.4)">
      <path id="제외_1" data-name="제외 1" d="M-1514.7-1100.731h0l-8.29-7.73a10.76,10.76,0,0,1-3.406-7.835,10.763,10.763,0,0,1,3.41-7.836,11.929,11.929,0,0,1,8.286-3.267,11.955,11.955,0,0,1,8.279,3.253,10.762,10.762,0,0,1,3.424,7.831,10.754,10.754,0,0,1-3.392,7.839l-8.31,7.746Zm.4-19.069a4.505,4.505,0,0,0-4.5,4.5,4.505,4.505,0,0,0,4.5,4.5,4.505,4.505,0,0,0,4.5-4.5A4.505,4.505,0,0,0-1514.3-1119.8Z" transform="translate(1526.4 1127.4)" fill="#f25050" stroke="#000" stroke-width="2"/>
    </g>
    <rect id="사각형_155" data-name="사각형 155" width="36" height="36" transform="translate(864 1410)" fill="none"/>
  </g>
</svg>
