<svg width="96" height="96" viewBox="0 0 96 96" fill="none" xmlns="http://www.w3.org/2000/svg">
<circle cx="48" cy="48" r="48" fill="#F7F7F7"/>
<mask id="mask0_1228_71" style="mask-type:alpha" maskUnits="userSpaceOnUse" x="0" y="0" width="96" height="96">
<circle cx="48" cy="48" r="48" fill="white"/>
</mask>
<g mask="url(#mask0_1228_71)">
<path d="M24 30H59V149.07H24V30Z" fill="white"/>
<path d="M40.6657 149.07H8V147.407C8 137.7 14.0055 128.861 23.9999 125V122C23.9999 121.628 23.9999 121.128 23.9999 121.5V57" fill="white"/>
<path d="M40.6657 149.07H8V147.407C8 137.7 14.0055 128.861 23.9999 125V122C23.9999 121.628 23.9999 121.128 23.9999 121.5V57" stroke="#E5E5E5" stroke-width="4" stroke-linecap="round" stroke-linejoin="round"/>
<path d="M43.5366 131.182V117.824H53.2924V123.299C53.2924 124.198 52.7806 125.006 52.0032 125.328C48.6589 126.71 45.6917 128.827 43.2249 131.465C42.5167 132.227 41.8433 133.027 41.2237 133.869C40.4925 134.861 39.8228 135.902 39.2225 136.99C37.229 140.596 35.9744 144.701 35.6588 149H71.9998L71.9997 42.9928H59V30H24V43.9923" fill="white"/>
<path d="M43.5366 131.182V117.824H53.2924V123.299C53.2924 124.198 52.7806 125.006 52.0032 125.328C48.6589 126.71 45.6917 128.827 43.2249 131.465C42.5167 132.227 41.8433 133.027 41.2237 133.869C40.4925 134.861 39.8228 135.902 39.2225 136.99C37.229 140.596 35.9744 144.701 35.6588 149H71.9998L71.9997 42.9928H59V30H24V43.9923" stroke="#E5E5E5" stroke-width="4" stroke-linecap="round" stroke-linejoin="round"/>
<path d="M14 49C17.1442 54.2486 22.7273 57 30 57C37.2727 57 42.5775 54.2897 46 49" stroke="#E5E5E5" stroke-width="4" stroke-linecap="round" stroke-linejoin="round"/>
<path d="M34.9999 38V44" stroke="#E5E5E5" stroke-width="4" stroke-linecap="round" stroke-linejoin="round"/>
</g>
</svg>
