<svg xmlns="http://www.w3.org/2000/svg" xmlns:xlink="http://www.w3.org/1999/xlink" width="96" height="96" viewBox="0 0 96 96">
  <defs>
    <clipPath id="clip-path">
      <circle id="타원_27" data-name="타원 27" cx="48" cy="48" r="48" transform="translate(4516 1252)" fill="#f7f7f7"/>
    </clipPath>
  </defs>
  <g id="마스크_그룹_4" data-name="마스크 그룹 4" transform="translate(-4516 -1252)" clip-path="url(#clip-path)">
    <g id="noimg" transform="translate(4516 1252)">
      <circle id="타원_26" data-name="타원 26" cx="48" cy="48" r="48" fill="#f7f7f7"/>
      <g id="그룹_180" data-name="그룹 180">
        <path id="패스_81" data-name="패스 81" d="M24,30H59V149.07H24Z" fill="#fff"/>
        <path id="패스_82" data-name="패스 82" d="M40.666,149.07H8v-1.663C8,137.7,14.005,128.861,24,125V57" fill="#fff"/>
        <path id="패스_83" data-name="패스 83" d="M40.666,149.07H8v-1.663C8,137.7,14.005,128.861,24,125V57" fill="none" stroke="#e5e5e5" stroke-linecap="round" stroke-linejoin="round" stroke-width="4"/>
        <path id="패스_84" data-name="패스 84" d="M43.537,131.182V117.824h9.756V123.3A2.175,2.175,0,0,1,52,125.328a25.246,25.246,0,0,0-8.778,6.137,27.365,27.365,0,0,0-2,2.4,28.309,28.309,0,0,0-2,3.121A29.306,29.306,0,0,0,35.659,149H72V42.993H59V30H24V43.992" fill="#fff"/>
        <path id="패스_85" data-name="패스 85" d="M43.537,131.182V117.824h9.756V123.3A2.175,2.175,0,0,1,52,125.328a25.246,25.246,0,0,0-8.778,6.137,27.365,27.365,0,0,0-2,2.4,28.309,28.309,0,0,0-2,3.121A29.306,29.306,0,0,0,35.659,149H72V42.993H59V30H24V43.992" fill="none" stroke="#e5e5e5" stroke-linecap="round" stroke-linejoin="round" stroke-width="4"/>
        <path id="패스_86" data-name="패스 86" d="M14,49c3.144,5.249,8.727,8,16,8s12.577-2.71,16-8" fill="none" stroke="#e5e5e5" stroke-linecap="round" stroke-linejoin="round" stroke-width="4"/>
        <path id="패스_87" data-name="패스 87" d="M35,38v6" fill="none" stroke="#e5e5e5" stroke-linecap="round" stroke-linejoin="round" stroke-width="4"/>
      </g>
    </g>
  </g>
</svg>
