<svg width="50" height="50" viewBox="0 0 50 50" fill="none" xmlns="http://www.w3.org/2000/svg">
<path d="M25 33.3359H33.1019L36.3425 38.5443H39.5833" stroke="#21272A" stroke-width="1.5" stroke-linecap="round" stroke-linejoin="round"/>
<path d="M25 22.9193H33.1019M25 17.7109V22.9193V17.7109ZM25 33.3359V22.9193V33.3359Z" stroke="#21272A" stroke-width="1.5" stroke-linecap="round" stroke-linejoin="round"/>
<path d="M25 13.5443C22.6988 13.5443 20.8333 11.6788 20.8333 9.3776C20.8333 7.07642 22.6988 5.21094 25 5.21094C27.3013 5.21094 29.1667 7.07642 29.1667 9.3776C29.1667 11.6788 27.3013 13.5443 25 13.5443Z" stroke="#21272A" stroke-width="1.5" stroke-linecap="round" stroke-linejoin="round"/>
<path d="M31.0033 40.6551C28.9106 43.4086 25.6004 45.1864 21.8752 45.1864C15.5469 45.1864 10.4168 40.0564 10.4168 33.728C10.4168 28.7309 13.6157 24.4809 18.0774 22.9141" stroke="#21272A" stroke-width="1.5" stroke-linecap="round" stroke-linejoin="round"/>
</svg>
