<svg width="40" height="40" viewBox="0 0 40 40" fill="none" xmlns="http://www.w3.org/2000/svg">
<path fill-rule="evenodd" clip-rule="evenodd" d="M18 14C19.6569 14 21 12.6569 21 11C21 9.34315 19.6569 8 18 8C16.3431 8 15 9.34315 15 11C15 12.6569 16.3431 14 18 14ZM18 15C20.2091 15 22 13.2091 22 11C22 8.79086 20.2091 7 18 7C15.7909 7 14 8.79086 14 11C14 13.2091 15.7909 15 18 15ZM25 25H27V32V33H28H31V32H28V25V24H27H18.5V18H25V17H18.5V15H18H17.5V17.0154C17.3346 17.0052 17.1679 17 17 17C12.5817 17 9 20.5817 9 25C9 29.4183 12.5817 33 17 33C21.4183 33 25 29.4183 25 25ZM24 25H18.5H18H17.5V18.0176C17.3348 18.0059 17.1681 18 17 18C13.134 18 10 21.134 10 25C10 28.866 13.134 32 17 32C20.866 32 24 28.866 24 25Z" fill="#AAAAAA"/>
</svg>
